<mxfile host="app.diagrams.net" modified="2024-05-03T06:43:13.348Z" agent="Mozilla/5.0 (Macintosh; Intel Mac OS X 10_15_7) AppleWebKit/537.36 (KHTML, like Gecko) Chrome/124.0.0.0 Safari/537.36" version="24.3.1" etag="LCRy_84LagkkC7V5eUfk" type="github">
  <diagram name="第 1 页" id="oVMZldqKrUS96csAcv6Z">
    <mxGraphModel>
      <root>
        <mxCell id="0" />
        <mxCell id="1" parent="0" />
      </root>
    </mxGraphModel>
  </diagram>
</mxfile>
